<svg xmlns="http://www.w3.org/2000/svg" viewBox="0 0 64 64" role="img" aria-label="Terranode symbol">
  <rect width="64" height="64" rx="10" fill="#F5F2E9"/>
  <g transform="translate(4 4) scale(.34)" fill="none" stroke="#26352F" stroke-width="12" stroke-linecap="round" stroke-linejoin="round">
    <path d="M22 43C42 24 67 25 86 44L103 62"/>
    <path d="M13 80C36 59 68 59 99 80"/>
    <path d="M22 117C42 136 67 135 86 116L103 98"/>
    <path d="M125 68L137 55C142 50 148 50 153 53"/>
    <path d="M125 80H153"/>
    <path d="M125 92L137 105C142 110 148 110 153 107"/>
  </g>
  <rect x="38.3" y="27.1" width="9.2" height="8.2" rx="1" fill="#C87855"/>
</svg>
